<svg xmlns="http://www.w3.org/2000/svg" version="1.1" xmlns:xlink="http://www.w3.org/1999/xlink" xmlns:svgjs="http://svgjs.dev/svgjs" width="1440" height="560" preserveAspectRatio="none" viewBox="0 0 1440 560"><g mask="url(&quot;#SvgjsMask1228&quot;)" fill="none"><rect width="1440" height="560" x="0" y="0" fill="#1e3266"></rect><path d="M1536 560L0 560 L0 319.51Q58.63 258.14, 120 316.78Q147.6 272.38, 192 299.98Q265.91 253.89, 312 327.8Q316.26 260.06, 384 264.32Q408.06 216.38, 456 240.45Q541.87 206.32, 576 292.19Q628.58 272.77, 648 325.35Q678.25 283.6, 720 313.84Q766.89 288.74, 792 335.63Q846.92 270.56, 912 325.48Q921.32 262.81, 984 272.13Q1014.9 231.03, 1056 261.94Q1112.86 246.8, 1128 303.66Q1137.57 241.23, 1200 250.8Q1223.44 202.24, 1272 225.68Q1327.65 209.33, 1344 264.98Q1369.93 218.92, 1416 244.85Q1500.68 209.54, 1536 294.22z" fill="#182f5d"></path><path d="M1512 560L0 560 L0 391.84Q48.06 367.9, 72 415.96Q77.44 349.4, 144 354.84Q185.54 324.38, 216 365.92Q261.69 291.61, 336 337.29Q403.85 285.14, 456 352.99Q540.98 317.97, 576 402.94Q621.46 328.39, 696 373.85Q729.14 286.99, 816 320.13Q889.79 273.93, 936 347.72Q1003.04 342.76, 1008 409.8Q1024.07 353.87, 1080 369.94Q1124.28 294.22, 1200 338.49Q1226.75 293.24, 1272 319.99Q1370.72 298.72, 1392 397.44Q1438.74 324.19, 1512 370.93z" fill="#25467d"></path><path d="M1488 560L0 560 L0 456Q64.03 400.03, 120 464.06Q128.92 400.98, 192 409.89Q235.83 381.72, 264 425.54Q309.54 351.08, 384 396.62Q478.75 371.38, 504 466.13Q516.38 406.51, 576 418.9Q648.45 371.35, 696 443.79Q772.93 400.73, 816 477.66Q885.74 427.4, 936 497.14Q951.83 392.97, 1056 408.8Q1108.81 341.61, 1176 394.42Q1252.63 351.05, 1296 427.68Q1345.85 357.53, 1416 407.38Q1469.76 389.14, 1488 442.91z" fill="#356cb1"></path><path d="M1464 560L0 560 L0 573.35Q32.7 534.05, 72 566.74Q104.61 479.35, 192 511.96Q238.17 486.13, 264 532.3Q279.13 475.43, 336 490.56Q404.08 438.64, 456 506.72Q555.14 485.86, 576 585Q605.88 494.88, 696 524.77Q737.12 445.88, 816 487Q862.85 461.85, 888 508.69Q950.25 498.94, 960 561.19Q964.23 493.42, 1032 497.65Q1061.62 455.27, 1104 484.89Q1192.21 453.11, 1224 541.32Q1275.26 472.58, 1344 523.84Q1392.46 452.31, 1464 500.77z" fill="white"></path></g><defs><mask id="SvgjsMask1228"><rect width="1440" height="560" fill="#ffffff"></rect></mask></defs></svg>