<svg width="75" height="75" viewBox="0 0 75 75" fill="none" xmlns="http://www.w3.org/2000/svg">
<path d="M46.8748 68.75V56.25C47.3096 52.3353 46.1871 48.4066 43.7498 45.3125C53.1248 45.3125 62.4998 39.0625 62.4998 28.125C62.7498 24.2188 61.6561 20.375 59.3748 17.1875C60.2498 13.5938 60.2498 9.84375 59.3748 6.25C59.3748 6.25 56.2498 6.25 49.9998 10.9375C41.7498 9.375 33.2498 9.375 24.9998 10.9375C18.7498 6.25 15.6248 6.25 15.6248 6.25C14.6873 9.84375 14.6873 13.5938 15.6248 17.1875C13.3494 20.3621 12.2451 24.2275 12.4998 28.125C12.4998 39.0625 21.8748 45.3125 31.2498 45.3125C30.0311 46.8438 29.1248 48.5937 28.5936 50.4687C28.0623 52.3437 27.9061 54.3125 28.1248 56.25V68.75" stroke="white" stroke-width="2" stroke-linecap="round" stroke-linejoin="round"/>
<path d="M28.125 56.25C14.0312 62.5 12.5 50 6.25 50" stroke="white" stroke-width="2" stroke-linecap="round" stroke-linejoin="round"/>
</svg>
