<svg width="81" height="81" viewBox="0 0 81 81" fill="none" xmlns="http://www.w3.org/2000/svg">
<path d="M54 27C59.3706 27 64.5213 29.1335 68.3189 32.9311C72.1165 36.7287 74.25 41.8794 74.25 47.25V70.875H60.75V47.25C60.75 45.4598 60.0388 43.7429 58.773 42.477C57.5071 41.2112 55.7902 40.5 54 40.5C52.2098 40.5 50.4929 41.2112 49.227 42.477C47.9612 43.7429 47.25 45.4598 47.25 47.25V70.875H33.75V47.25C33.75 41.8794 35.8835 36.7287 39.6811 32.9311C43.4787 29.1335 48.6294 27 54 27Z" stroke="white" stroke-width="2" stroke-linecap="round" stroke-linejoin="round"/>
<path d="M20.25 30.375H6.75V70.875H20.25V30.375Z" stroke="white" stroke-width="2" stroke-linecap="round" stroke-linejoin="round"/>
<path d="M13.5 20.25C17.2279 20.25 20.25 17.2279 20.25 13.5C20.25 9.77208 17.2279 6.75 13.5 6.75C9.77208 6.75 6.75 9.77208 6.75 13.5C6.75 17.2279 9.77208 20.25 13.5 20.25Z" stroke="white" stroke-width="2" stroke-linecap="round" stroke-linejoin="round"/>
</svg>
