<svg viewBox="221.184 137.216 589.824 503.808" xmlns="http://www.w3.org/2000/svg" style="max-height: 500px" width="589.824" height="503.808">
  <defs>
    <style>
      .cls-1 {
        fill: #1f373f;
      }

      .cls-2, .cls-3, .cls-4, .cls-5 {
        stroke-miterlimit: 10;
      }

      .cls-2, .cls-4 {
        stroke: #05202e;
      }

      .cls-2, .cls-4, .cls-6 {
        fill: #fefde5;
      }

      .cls-3 {
        stroke: #231f20;
        stroke-width: 12px;
      }

      .cls-3, .cls-7 {
        fill: #f02648;
      }

      .cls-4 {
        stroke-width: 18px;
      }

      .cls-8, .cls-5 {
        fill: #05202e;
      }

      .cls-5 {
        stroke: #fefde5;
        stroke-width: 4px;
      }
    </style>
  </defs>
  <g id="Layer_2">
    <rect ry="72.53" rx="72.53" height="431.5" width="550.5" y="194" x="237.5" class="cls-4"/>
    <rect height="18" width="533" y="282" x="246" class="cls-8"/>
    <path d="M314,213h397c30.36,0,55,24.64,55,55v14h-507v-14c0-30.36,24.64-55,55-55Z" class="cls-1"/>
    <g>
      <rect ry="33" rx="33" height="113" width="66" y="144.5" x="328.5" class="cls-8"/>
      <rect ry="16" rx="16" height="78" width="32" y="162" x="345" class="cls-6"/>
    </g>
    <g>
      <rect ry="33" rx="33" height="113" width="66" y="144.73" x="626.71" class="cls-8"/>
      <rect ry="16" rx="16" height="78" width="32" y="162.23" x="643.21" class="cls-2"/>
    </g>
  </g>
  <g id="blocks">
    <rect ry="8.68" rx="8.68" height="37" width="40" y="332.5" x="277.5" class="cls-7"/>
    <rect ry="8.68" rx="8.68" height="37" width="40" y="387" x="277" class="cls-7"/>
    <rect ry="8.68" rx="8.68" height="37" width="40" y="441" x="277" class="cls-8"/>
    <rect ry="8.68" rx="8.68" height="37" width="40" y="495" x="277" class="cls-8"/>
    <rect ry="8.68" rx="8.68" height="37" width="40" y="549" x="278" class="cls-8"/>
    <rect ry="8.68" rx="8.68" height="37" width="40" y="333" x="334" class="cls-8"/>
    <rect ry="8.68" rx="8.68" height="37" width="40" y="387" x="334" class="cls-8"/>
    <rect ry="8.68" rx="8.68" height="37" width="40" y="441" x="334" class="cls-8"/>
    <rect ry="8.68" rx="8.68" height="37" width="40" y="495" x="334" class="cls-8"/>
    <rect ry="8.68" rx="8.68" height="37" width="40" y="549" x="334" class="cls-8"/>
    <rect ry="8.68" rx="8.68" height="37" width="40" y="549" x="701" class="cls-8"/>
    <rect ry="8.68" rx="8.68" height="37" width="40" y="495" x="701" class="cls-8"/>
  </g>
  <g id="rutgers">
    <path d="M674.64,535.15l-60.13-90.68c34.6-13.77,66.1-38.22,66.1-81.61,0-94.25-112.3-94.25-112.3-94.25h-36.68s-197.63,0-197.63,0v60.81h24.32v205.74h-24.32v63.85h163.17v-63.85h-26.35v-79.05h38.03l52.42,79.05h-27.61v63.85h176.35v-63.85h-35.36ZM470.82,329.42h54.73s40.27,1.44,40.54,33.44c.27,31.92-40.54,34.46-40.54,34.46h0s-54.73,0-54.73,0v-67.9Z" class="cls-3"/>
  </g>
  <g id="clock">
    <path d="M801,410.5c0-19.75-7.31-37.78-19.35-51.58l12.57,9.24,3.55-4.83c9.81-13.35,6.95-32.13-6.4-41.94l-2.42-1.78c-13.35-9.81-32.13-6.95-41.94,6.4l-3.55,4.83,10.55,7.76c-9.65-4.23-20.3-6.6-31.51-6.6s-22.47,2.51-32.33,6.97l11.05-8.13-3.55-4.83c-9.81-13.35-28.59-16.21-41.94-6.4l-2.42,1.78c-13.35,9.81-16.21,28.59-6.4,41.94l3.55,4.83,13.44-9.88c-12.37,13.88-19.9,32.16-19.9,52.22,0,22.29,9.3,42.39,24.22,56.68l-7.56,13.1c-2.76,4.78-1.12,10.9,3.66,13.66l.87.5c4.78,2.76,10.9,1.12,13.66-3.66l6.44-11.15c11.08,5.98,23.75,9.37,37.22,9.37s26.01-3.36,37.04-9.28l6.61,11.45c2.76,4.78,8.88,6.42,13.66,3.66l.87-.5c4.78-2.76,6.42-8.88,3.66-13.66l-7.7-13.35c15-14.3,24.37-34.46,24.37-56.82Z" class="cls-5"/>
    <g>
      <circle r="78.5" cy="410.5" cx="722.5" class="cls-8"/>
      <path transform="translate(331.21 -271.11) rotate(30)" d="M661,469h21v17c0,5.52-4.48,10-10,10h-1c-5.52,0-10-4.48-10-10v-17h0Z" class="cls-8"/>
      <path transform="translate(-137.81 451.44) rotate(-30)" d="M762.99,469.38h21v17c0,5.52-4.48,10-10,10h-1c-5.52,0-10-4.48-10-10v-17h0Z" class="cls-8"/>
      <path transform="translate(349.9 -396.64) rotate(36.32)" d="M778,317h3c16.56,0,30,13.44,30,30v6h-63v-6c0-16.56,13.44-30,30-30Z" class="cls-8"/>
      <path transform="translate(-69.18 459.11) rotate(-36.32)" d="M663.68,317h3c16.56,0,30,13.44,30,30v6h-63v-6c0-16.56,13.44-30,30-30Z" class="cls-8"/>
      <circle r="63.24" cy="410.5" cx="722.5" class="cls-6"/>
      <rect ry="8" rx="8" height="59" width="16" y="359" x="715" class="cls-8"/>
      <rect transform="translate(1550.47 200.29) rotate(135)" ry="7.5" rx="7.5" height="46.69" width="15" y="397.91" x="726.26" class="cls-8"/>
    </g>
  </g>
</svg>